<?xml version="1.0" standalone="no"?><svg xmlns="http://www.w3.org/2000/svg" viewBox="0 0 1440 320"><path fill="#0099ff" fill-opacity="1" d="M0,32L9.6,42.7C19.2,53,38,75,58,80C76.8,85,96,75,115,80C134.4,85,154,107,173,128C192,149,211,171,230,165.3C249.6,160,269,128,288,122.7C307.2,117,326,139,346,170.7C364.8,203,384,245,403,234.7C422.4,224,442,160,461,144C480,128,499,160,518,197.3C537.6,235,557,277,576,256C595.2,235,614,149,634,128C652.8,107,672,149,691,192C710.4,235,730,277,749,272C768,267,787,213,806,192C825.6,171,845,181,864,197.3C883.2,213,902,235,922,240C940.8,245,960,235,979,224C998.4,213,1018,203,1037,176C1056,149,1075,107,1094,85.3C1113.6,64,1133,64,1152,80C1171.2,96,1190,128,1210,170.7C1228.8,213,1248,267,1267,256C1286.4,245,1306,171,1325,133.3C1344,96,1363,96,1382,112C1401.6,128,1421,160,1430,176L1440,192L1440,320L1430.4,320C1420.8,320,1402,320,1382,320C1363.2,320,1344,320,1325,320C1305.6,320,1286,320,1267,320C1248,320,1229,320,1210,320C1190.4,320,1171,320,1152,320C1132.8,320,1114,320,1094,320C1075.2,320,1056,320,1037,320C1017.6,320,998,320,979,320C960,320,941,320,922,320C902.4,320,883,320,864,320C844.8,320,826,320,806,320C787.2,320,768,320,749,320C729.6,320,710,320,691,320C672,320,653,320,634,320C614.4,320,595,320,576,320C556.8,320,538,320,518,320C499.2,320,480,320,461,320C441.6,320,422,320,403,320C384,320,365,320,346,320C326.4,320,307,320,288,320C268.8,320,250,320,230,320C211.2,320,192,320,173,320C153.6,320,134,320,115,320C96,320,77,320,58,320C38.4,320,19,320,10,320L0,320Z"></path></svg>